<svg width="100" height="100" viewBox="0 0 100 100" fill="none" xmlns="http://www.w3.org/2000/svg">
<path d="M24.9702 88.3618C18.9748 82.3665 18.9748 72.6201 24.9702 66.6247L45.6312 45.9637C51.6266 39.9683 61.3729 39.9683 67.3683 45.9637C73.3637 51.9591 73.3637 61.7054 67.3683 67.7008L46.7073 88.3618C40.6812 94.388 30.9656 94.388 24.9702 88.3618Z" stroke="#0CB4BF" stroke-opacity="0.5" stroke-width="8" stroke-miterlimit="10"/>
<path d="M33.5788 56.3863C27.5834 50.3909 27.5834 40.6445 33.5788 34.6491L54.2398 13.9881C60.2352 7.99273 69.9816 7.99273 75.977 13.9881C81.9723 19.9835 81.9723 29.7298 75.977 35.7252L55.3159 56.3863C49.2898 62.4124 39.5742 62.4124 33.5788 56.3863Z" stroke="#0CB4BF" stroke-opacity="0.5" stroke-width="8" stroke-miterlimit="10"/>
</svg>
