<svg xmlns="http://www.w3.org/2000/svg" xmlns:xlink="http://www.w3.org/1999/xlink" width="1080" zoomAndPan="magnify" viewBox="0 0 810 809.999993" height="1080" preserveAspectRatio="xMidYMid meet" version="1.0"><defs><clipPath id="0f4c2d4add"><path d="M 49 191.332031 L 761 191.332031 L 761 618.832031 L 49 618.832031 Z M 49 191.332031 " clip-rule="nonzero"/></clipPath></defs><rect x="-81" width="972" fill="#ffffff" y="-80.999999" height="971.999992" fill-opacity="1"/><rect x="-81" width="972" fill="#ffffff" y="-80.999999" height="971.999992" fill-opacity="1"/><g clip-path="url(#0f4c2d4add)"><path fill="#46afb4" d="M 404.996094 270.761719 C 331.011719 270.761719 270.765625 331.007812 270.765625 404.996094 C 270.765625 478.980469 331.011719 539.226562 404.996094 539.226562 C 478.984375 539.226562 539.230469 478.980469 539.230469 404.996094 C 539.230469 331.007812 478.984375 270.761719 404.996094 270.761719 Z M 404.996094 507.644531 C 348.382812 507.644531 302.347656 461.609375 302.347656 404.996094 C 302.347656 348.378906 348.382812 302.347656 404.996094 302.347656 C 461.613281 302.347656 507.644531 348.378906 507.644531 404.996094 C 507.644531 461.609375 461.613281 507.644531 404.996094 507.644531 Z M 420.789062 349.722656 C 420.789062 358.410156 413.683594 365.515625 404.996094 365.515625 C 383.203125 365.515625 365.515625 383.203125 365.515625 404.996094 C 365.515625 413.679688 358.410156 420.785156 349.726562 420.785156 C 341.039062 420.785156 333.933594 413.679688 333.933594 404.996094 C 333.933594 365.832031 365.832031 333.929688 404.996094 333.929688 C 413.683594 333.929688 420.789062 341.039062 420.789062 349.722656 Z M 758.183594 397.097656 C 685.382812 270.445312 550.046875 191.804688 404.996094 191.804688 C 259.949219 191.804688 124.609375 270.445312 51.808594 397.097656 C 49.046875 401.996094 49.046875 407.996094 51.808594 412.8125 C 124.609375 539.542969 259.949219 618.1875 404.996094 618.1875 C 550.046875 618.1875 685.382812 539.542969 758.183594 412.890625 C 761.027344 407.996094 761.027344 401.996094 758.183594 397.097656 Z M 404.996094 586.601562 C 274.238281 586.601562 152.011719 517.277344 83.789062 404.996094 C 152.011719 292.714844 274.238281 223.386719 404.996094 223.386719 C 535.753906 223.386719 657.984375 292.714844 726.207031 404.996094 C 657.984375 517.277344 535.753906 586.601562 404.996094 586.601562 Z M 404.996094 586.601562 " fill-opacity="1" fill-rule="nonzero"/></g></svg>