<?xml version="1.0" encoding="utf-8"?>
<!-- Generator: Adobe Illustrator 28.1.0, SVG Export Plug-In . SVG Version: 6.00 Build 0)  -->
<svg version="1.1" id="Layer_1" xmlns="http://www.w3.org/2000/svg" xmlns:xlink="http://www.w3.org/1999/xlink" x="0px" y="0px"
	 viewBox="0 0 496 496" style="enable-background:new 0 0 496 496;" xml:space="preserve">
<style type="text/css">
	.st0{fill:#29337A;}
	.st1{fill:#1B265B;}
	.st2{fill:#111D49;}
	.st3{fill:#FFFFFF;}
	.st4{fill:#D9ECED;}
	.st5{fill:#E51D35;}
	.st6{fill:#AF0026;}
</style>
<rect x="-0.2" y="0.2" class="st0" width="496.1" height="496.2"/>
<polygon class="st1" points="-0.2,0.2 -0.2,39.9 495.9,460.8 495.9,0.2 "/>
<g>
	<polygon class="st2" points="-0.2,0.2 -0.2,13 495.9,163.6 495.9,0.2 	"/>
	<polygon class="st2" points="495.9,427.5 -0.2,426.7 -0.2,496.4 495.9,496.4 	"/>
</g>
<polygon class="st3" points="495.9,0.2 463.6,0.2 248,215.9 32.4,0.2 -0.2,0.2 -0.2,38.5 212.3,248 -0.2,457.5 -0.2,496.4 
	31.7,496.4 248,280.1 464.3,496.4 495.9,496.4 495.9,457.2 283.7,248 495.9,38.8 "/>
<g>
	<polygon class="st4" points="31.7,496.4 101.6,426.5 31.4,426.5 -0.2,457.6 -0.2,496.4 	"/>
	<polygon class="st4" points="495.9,457.2 464.6,426.5 394.4,426.5 464.3,496.4 495.9,496.4 	"/>
	<polygon class="st4" points="495.9,0.2 463.6,0.2 248,215.9 32.4,0.2 -0.2,0.2 -0.2,37 6.4,43.3 490.8,453.9 283.7,250.4 
		495.9,39.2 	"/>
</g>
<polygon class="st3" points="295.6,0.2 200.4,0.2 200.4,200.4 -0.2,200.4 -0.2,295.6 200.4,295.6 200.4,496.4 295.6,496.4 
	295.6,295.6 495.9,295.6 495.9,200.4 295.6,200.4 "/>
<g>
	<rect x="200.4" y="426.5" class="st4" width="95.2" height="70.5"/>
	<polygon class="st4" points="295.6,0.2 200.4,0.2 200.4,200.4 192.1,200.4 303.9,295.6 295.6,200.4 	"/>
</g>
<polygon class="st5" points="271.8,0.2 224.2,0.2 224.2,224.2 -0.2,3.3 -0.2,24.6 200.4,224.2 -0.2,224.2 -0.2,271.8 201.6,271.8 
	-0.2,476.8 -0.2,496.4 1.9,496.4 224.2,271.8 224.2,496.4 271.8,496.4 271.8,274.2 495.9,492.4 495.9,471 295.6,271.8 495.9,271.8 
	495.9,224.2 286.1,224.2 495.9,23.9 495.9,1.3 271.8,224.2 "/>
<g>
	<rect x="224.2" y="426.5" class="st6" width="47.6" height="69.9"/>
	<polygon class="st6" points="1.9,496.4 71.8,426.5 49.2,426.5 -0.2,476.8 -0.2,496.4 	"/>
	<polygon class="st6" points="495.9,471.3 450.4,426.5 428.9,426.5 495.9,492.4 	"/>
	<polygon class="st6" points="271.8,0.2 224.2,0.2 224.2,224.2 -0.2,3.3 -0.2,24.5 104,127.8 389.6,368.2 295.6,271.8 495.9,271.8 
		495.9,224.2 293.2,224.2 495.9,24.7 495.9,1.3 271.8,224.2 	"/>
</g>
</svg>
