<svg xmlns="http://www.w3.org/2000/svg" xmlns:xlink="http://www.w3.org/1999/xlink" width="40" zoomAndPan="magnify" viewBox="0 0 30 30.000001" height="40" preserveAspectRatio="xMidYMid meet" version="1.0"><defs><clipPath id="c59dcb825d"><path d="M 5 0.4375 L 12 0.4375 L 12 6 L 5 6 Z M 5 0.4375 " clip-rule="nonzero"/></clipPath><clipPath id="2cff8cd701"><path d="M 1.027344 6 L 16 6 L 16 28.742188 L 1.027344 28.742188 Z M 1.027344 6 " clip-rule="nonzero"/></clipPath><clipPath id="304e972e10"><path d="M 18 0.4375 L 25 0.4375 L 25 6 L 18 6 Z M 18 0.4375 " clip-rule="nonzero"/></clipPath><clipPath id="67047b0cc8"><path d="M 14 6 L 29 6 L 29 28.742188 L 14 28.742188 Z M 14 6 " clip-rule="nonzero"/></clipPath></defs><g clip-path="url(#c59dcb825d)"><path fill="#f185d2" d="M 11.277344 3.101562 C 11.277344 3.453125 11.210938 3.792969 11.074219 4.121094 C 10.9375 4.445312 10.746094 4.734375 10.496094 4.984375 C 10.246094 5.234375 9.957031 5.425781 9.632812 5.5625 C 9.304688 5.695312 8.964844 5.765625 8.613281 5.765625 C 8.257812 5.765625 7.917969 5.695312 7.59375 5.5625 C 7.265625 5.425781 6.980469 5.234375 6.730469 4.984375 C 6.480469 4.734375 6.289062 4.445312 6.152344 4.121094 C 6.015625 3.792969 5.949219 3.453125 5.949219 3.101562 C 5.949219 2.746094 6.015625 2.40625 6.152344 2.082031 C 6.289062 1.753906 6.480469 1.464844 6.730469 1.214844 C 6.980469 0.96875 7.265625 0.773438 7.59375 0.640625 C 7.917969 0.503906 8.257812 0.4375 8.613281 0.4375 C 8.964844 0.4375 9.304688 0.503906 9.632812 0.640625 C 9.957031 0.773438 10.246094 0.96875 10.496094 1.214844 C 10.746094 1.464844 10.9375 1.753906 11.074219 2.082031 C 11.210938 2.40625 11.277344 2.746094 11.277344 3.101562 Z M 11.277344 3.101562 " fill-opacity="1" fill-rule="nonzero"/></g><g clip-path="url(#2cff8cd701)"><path fill="#f185d2" d="M 15.867188 16.222656 L 12.4375 7.746094 C 12.25 7.28125 11.8125 6.988281 11.34375 6.964844 C 11.191406 6.910156 11.023438 6.878906 10.851562 6.878906 L 6.25 6.878906 C 6.097656 6.878906 5.953125 6.902344 5.816406 6.945312 C 5.328125 6.953125 4.871094 7.246094 4.675781 7.730469 L 1.246094 16.207031 C 1.035156 16.726562 1.253906 17.320312 1.75 17.582031 C 2.308594 17.875 2.996094 17.636719 3.253906 17.0625 L 5.578125 11.863281 L 3.28125 20.980469 L 5.6875 20.980469 L 5.816406 27.535156 C 5.828125 28.117188 6.308594 28.589844 6.890625 28.589844 C 7.476562 28.589844 7.957031 28.121094 7.96875 27.535156 L 8.09375 20.980469 L 9.023438 20.980469 L 9.152344 27.535156 C 9.160156 28.117188 9.640625 28.589844 10.226562 28.589844 C 10.8125 28.589844 11.289062 28.121094 11.300781 27.535156 L 11.429688 20.980469 L 13.832031 20.980469 L 11.445312 11.707031 L 11.453125 11.683594 L 13.859375 17.074219 C 14.117188 17.652344 14.804688 17.890625 15.363281 17.597656 C 15.859375 17.339844 16.078125 16.742188 15.867188 16.222656 Z M 15.867188 16.222656 " fill-opacity="1" fill-rule="nonzero"/></g><g clip-path="url(#304e972e10)"><path fill="#46afb4" d="M 24.191406 3.101562 C 24.191406 3.453125 24.121094 3.792969 23.988281 4.121094 C 23.851562 4.445312 23.660156 4.734375 23.410156 4.984375 C 23.160156 5.234375 22.871094 5.425781 22.546875 5.5625 C 22.21875 5.695312 21.878906 5.765625 21.527344 5.765625 C 21.171875 5.765625 20.832031 5.695312 20.507812 5.5625 C 20.179688 5.425781 19.894531 5.234375 19.644531 4.984375 C 19.394531 4.734375 19.199219 4.445312 19.066406 4.121094 C 18.929688 3.792969 18.863281 3.453125 18.863281 3.101562 C 18.863281 2.746094 18.929688 2.40625 19.066406 2.082031 C 19.199219 1.753906 19.394531 1.464844 19.644531 1.214844 C 19.894531 0.96875 20.179688 0.773438 20.507812 0.640625 C 20.832031 0.503906 21.171875 0.4375 21.527344 0.4375 C 21.878906 0.4375 22.21875 0.503906 22.546875 0.640625 C 22.871094 0.773438 23.160156 0.96875 23.410156 1.214844 C 23.660156 1.464844 23.851562 1.753906 23.988281 2.082031 C 24.121094 2.40625 24.191406 2.746094 24.191406 3.101562 Z M 24.191406 3.101562 " fill-opacity="1" fill-rule="nonzero"/></g><g clip-path="url(#67047b0cc8)"><path fill="#46afb4" d="M 28.75 16.332031 L 25.320312 7.855469 C 25.273438 7.75 25.214844 7.652344 25.148438 7.5625 C 24.898438 7.15625 24.449219 6.878906 23.925781 6.878906 L 18.964844 6.878906 C 18.511719 6.878906 18.113281 7.085938 17.851562 7.40625 C 17.726562 7.527344 17.625 7.671875 17.558594 7.839844 L 14.125 16.316406 C 13.914062 16.835938 14.132812 17.429688 14.628906 17.695312 C 15.1875 17.988281 15.878906 17.746094 16.136719 17.171875 L 17.902344 13.214844 L 17.730469 16.902344 C 17.699219 17.566406 18.039062 18.15625 18.554688 18.488281 L 18.730469 27.539062 C 18.742188 28.125 19.21875 28.59375 19.804688 28.59375 C 20.390625 28.59375 20.871094 28.128906 20.882812 27.539062 L 21.050781 18.765625 L 21.894531 18.765625 L 22.0625 27.539062 C 22.074219 28.125 22.550781 28.59375 23.136719 28.59375 C 23.722656 28.59375 24.203125 28.128906 24.210938 27.539062 L 24.386719 18.460938 C 24.894531 18.117188 25.214844 17.523438 25.167969 16.863281 L 24.898438 13.074219 L 26.738281 17.195312 C 26.996094 17.773438 27.683594 18.011719 28.242188 17.714844 C 28.742188 17.449219 28.960938 16.855469 28.75 16.332031 Z M 28.75 16.332031 " fill-opacity="1" fill-rule="nonzero"/></g></svg>