<svg xmlns="http://www.w3.org/2000/svg" xmlns:xlink="http://www.w3.org/1999/xlink" width="40" zoomAndPan="magnify" viewBox="0 0 30 30.000001" height="40" preserveAspectRatio="xMidYMid meet" version="1.0"><defs><clipPath id="5f33c6b407"><path d="M 7.238281 6 L 22.480469 6 L 22.480469 29.03125 L 7.238281 29.03125 Z M 7.238281 6 " clip-rule="nonzero"/></clipPath></defs><path fill="#f185d2" d="M 17.617188 2.75 C 17.617188 3.113281 17.546875 3.464844 17.410156 3.800781 C 17.273438 4.136719 17.078125 4.433594 16.824219 4.691406 C 16.574219 4.949219 16.28125 5.148438 15.949219 5.285156 C 15.621094 5.425781 15.273438 5.496094 14.917969 5.496094 C 14.558594 5.496094 14.214844 5.425781 13.882812 5.285156 C 13.554688 5.148438 13.261719 4.949219 13.007812 4.691406 C 12.753906 4.433594 12.558594 4.136719 12.421875 3.800781 C 12.285156 3.464844 12.21875 3.113281 12.21875 2.75 C 12.21875 2.382812 12.285156 2.03125 12.421875 1.695312 C 12.558594 1.359375 12.753906 1.0625 13.007812 0.804688 C 13.261719 0.546875 13.554688 0.347656 13.882812 0.210938 C 14.214844 0.0703125 14.558594 0 14.917969 0 C 15.273438 0 15.621094 0.0703125 15.949219 0.210938 C 16.28125 0.347656 16.574219 0.546875 16.824219 0.804688 C 17.078125 1.0625 17.273438 1.359375 17.410156 1.695312 C 17.546875 2.03125 17.617188 2.382812 17.617188 2.75 Z M 17.617188 2.75 " fill-opacity="1" fill-rule="nonzero"/><g clip-path="url(#5f33c6b407)"><path fill="#f185d2" d="M 22.269531 16.277344 L 18.792969 7.535156 C 18.601562 7.054688 18.160156 6.753906 17.679688 6.730469 C 17.527344 6.671875 17.355469 6.640625 17.179688 6.640625 L 12.519531 6.640625 C 12.367188 6.640625 12.21875 6.664062 12.082031 6.710938 C 11.589844 6.71875 11.125 7.023438 10.929688 7.519531 L 7.453125 16.261719 C 7.242188 16.796875 7.460938 17.410156 7.964844 17.679688 C 8.53125 17.980469 9.230469 17.734375 9.488281 17.140625 L 11.839844 11.78125 L 9.515625 21.183594 L 11.957031 21.183594 L 12.082031 27.945312 C 12.097656 28.546875 12.582031 29.03125 13.175781 29.03125 C 13.769531 29.03125 14.253906 28.546875 14.265625 27.945312 L 14.394531 21.183594 L 15.332031 21.183594 L 15.460938 27.945312 C 15.472656 28.546875 15.957031 29.03125 16.550781 29.03125 C 17.144531 29.03125 17.628906 28.546875 17.640625 27.945312 L 17.769531 21.183594 L 20.207031 21.183594 L 17.789062 11.621094 L 17.796875 11.601562 L 20.234375 17.160156 C 20.496094 17.753906 21.191406 18 21.757812 17.699219 C 22.257812 17.429688 22.480469 16.816406 22.269531 16.277344 Z M 22.269531 16.277344 " fill-opacity="1" fill-rule="nonzero"/></g></svg>