<svg xmlns="http://www.w3.org/2000/svg" xmlns:xlink="http://www.w3.org/1999/xlink" width="40" zoomAndPan="magnify" viewBox="0 0 30 30.000001" height="40" preserveAspectRatio="xMidYMid meet" version="1.0"><defs><clipPath id="8a0b009037"><path d="M 7.238281 6 L 22.480469 6 L 22.480469 29.03125 L 7.238281 29.03125 Z M 7.238281 6 " clip-rule="nonzero"/></clipPath></defs><path fill="#46afb4" d="M 17.835938 2.75 C 17.835938 3.113281 17.765625 3.464844 17.625 3.800781 C 17.488281 4.136719 17.289062 4.433594 17.03125 4.691406 C 16.773438 4.949219 16.476562 5.148438 16.140625 5.285156 C 15.804688 5.425781 15.453125 5.496094 15.089844 5.496094 C 14.722656 5.496094 14.371094 5.425781 14.035156 5.285156 C 13.699219 5.148438 13.402344 4.949219 13.144531 4.691406 C 12.886719 4.433594 12.6875 4.136719 12.550781 3.800781 C 12.410156 3.464844 12.339844 3.113281 12.339844 2.75 C 12.339844 2.382812 12.410156 2.03125 12.550781 1.695312 C 12.6875 1.359375 12.886719 1.0625 13.144531 0.804688 C 13.402344 0.546875 13.699219 0.347656 14.035156 0.210938 C 14.371094 0.0703125 14.722656 0 15.089844 0 C 15.453125 0 15.804688 0.0703125 16.140625 0.210938 C 16.476562 0.347656 16.773438 0.546875 17.03125 0.804688 C 17.289062 1.0625 17.488281 1.359375 17.625 1.695312 C 17.765625 2.03125 17.835938 2.382812 17.835938 2.75 Z M 17.835938 2.75 " fill-opacity="1" fill-rule="nonzero"/><g clip-path="url(#8a0b009037)"><path fill="#46afb4" d="M 22.535156 16.394531 L 19 7.648438 C 18.953125 7.539062 18.894531 7.4375 18.824219 7.347656 C 18.5625 6.925781 18.097656 6.640625 17.558594 6.640625 L 12.445312 6.640625 C 11.976562 6.640625 11.566406 6.855469 11.292969 7.1875 C 11.167969 7.308594 11.0625 7.457031 10.992188 7.632812 L 7.457031 16.375 C 7.242188 16.910156 7.464844 17.523438 7.980469 17.792969 C 8.554688 18.09375 9.265625 17.847656 9.53125 17.257812 L 11.351562 13.171875 L 11.175781 16.972656 C 11.144531 17.65625 11.488281 18.269531 12.027344 18.605469 L 12.207031 27.941406 C 12.21875 28.546875 12.714844 29.027344 13.316406 29.027344 C 13.921875 29.027344 14.414062 28.546875 14.429688 27.941406 L 14.605469 18.890625 L 15.46875 18.890625 L 15.640625 27.945312 C 15.652344 28.546875 16.144531 29.03125 16.75 29.03125 C 17.355469 29.03125 17.847656 28.546875 17.859375 27.945312 L 18.042969 18.578125 C 18.5625 18.226562 18.894531 17.613281 18.847656 16.933594 L 18.570312 13.027344 L 20.46875 17.273438 C 20.730469 17.867188 21.441406 18.113281 22.019531 17.8125 C 22.527344 17.542969 22.753906 16.929688 22.535156 16.394531 Z M 22.535156 16.394531 " fill-opacity="1" fill-rule="nonzero"/></g></svg>