<svg width="100" height="100" viewBox="0 0 100 100" fill="none" xmlns="http://www.w3.org/2000/svg">
<g clip-path="url(#clip0_1290_111)">
<path opacity="0.5" d="M8.33337 50.8496C8.33337 41.3146 8.33337 36.547 10.4967 32.5948C12.66 28.6426 16.6123 26.1897 24.5168 21.2839L32.8502 16.112C41.2058 10.9262 45.3838 8.33337 50 8.33337C54.6163 8.33337 58.7942 10.9262 67.15 16.112L75.4834 21.2839C83.3879 26.1897 87.34 28.6426 89.5034 32.5948C91.6667 36.547 91.6667 41.3146 91.6667 50.8496V57.1875C91.6667 73.4409 91.6667 81.5679 86.785 86.6171C81.9038 91.6667 74.0467 91.6667 58.3334 91.6667H41.6667C25.9532 91.6667 18.0965 91.6667 13.2149 86.6171C8.33337 81.5679 8.33337 73.4409 8.33337 57.1875V50.8496Z" fill="#06B6B1"/>
<path d="M37.5 71.875C35.7741 71.875 34.375 73.2742 34.375 75C34.375 76.7258 35.7741 78.125 37.5 78.125H62.5C64.2258 78.125 65.625 76.7258 65.625 75C65.625 73.2742 64.2258 71.875 62.5 71.875H37.5Z" fill="#132844"/>
</g>
<defs>
<clipPath id="clip0_1290_111">
<rect width="100" height="100" fill="white"/>
</clipPath>
</defs>
</svg>
