<?xml version="1.0" encoding="UTF-8"?>
<svg id="Layer_1" data-name="Layer 1" xmlns="http://www.w3.org/2000/svg" viewBox="0 0 100 100">
  <defs>
    <style>
      .cls-1 {
        opacity: .5;
      }

      .cls-2 {
        fill: #06b6b1;
        stroke-width: 0px;
      }
    </style>
  </defs>
  <g class="cls-1">
    <path class="cls-2" d="M27.05,31.08c0-.38,0-.75.03-1.12s.05-.75.08-1.12c.04-.37.08-.74.14-1.11.06-.37.12-.74.19-1.11.07-.37.16-.73.25-1.1.09-.36.19-.72.3-1.08s.23-.71.35-1.07c.13-.35.26-.7.4-1.05.14-.35.3-.69.46-1.03s.33-.67.51-1c.18-.33.36-.66.55-.98.19-.32.39-.64.6-.95.21-.31.42-.62.65-.92.22-.3.45-.6.69-.89.24-.29.48-.57.73-.85s.51-.55.77-.81.54-.52.81-.77c.28-.25.56-.5.85-.73.29-.24.58-.47.89-.69.3-.22.61-.44.92-.65.31-.21.63-.41.95-.6s.65-.38.98-.55c.33-.18.66-.35,1-.51.34-.16.68-.31,1.03-.46.35-.14.7-.28,1.05-.41s.71-.24,1.07-.35.72-.21,1.08-.3c.36-.09.73-.17,1.1-.25s.74-.14,1.11-.19c.37-.06.74-.1,1.12-.14.37-.04.75-.07,1.12-.08.37-.02.75-.03,1.12-.03,30.26,1.07,30.32,44.63.08,45.79-.38,0-.75,0-1.13-.02-.38-.02-.75-.04-1.12-.08s-.75-.08-1.12-.14-.74-.12-1.11-.19c-.37-.07-.73-.15-1.1-.24-.36-.09-.73-.19-1.09-.3-.36-.11-.72-.23-1.07-.35-.35-.13-.7-.26-1.05-.4-.35-.14-.69-.29-1.03-.45s-.68-.33-1.01-.5-.66-.36-.98-.55-.64-.39-.95-.6c-.31-.21-.62-.42-.92-.65s-.6-.45-.89-.69c-.29-.24-.58-.48-.85-.73s-.55-.51-.82-.78c-.27-.26-.52-.54-.78-.81-.25-.28-.5-.56-.74-.85s-.47-.59-.69-.89c-.22-.3-.44-.61-.65-.92s-.41-.63-.6-.95c-.19-.32-.38-.65-.56-.98-.18-.33-.35-.67-.51-1s-.31-.68-.46-1.03c-.14-.35-.28-.7-.41-1.05-.13-.35-.24-.71-.35-1.07-.11-.36-.21-.72-.3-1.08-.09-.36-.17-.73-.25-1.1-.07-.37-.14-.74-.19-1.11-.06-.37-.1-.74-.14-1.12s-.07-.75-.08-1.12c-.02-.37-.03-.75-.03-1.13ZM73.12,53.98c-.15-.09-.31-.17-.47-.24-.16-.07-.33-.13-.5-.17s-.35-.08-.52-.1-.35-.03-.53-.03c-.18,0-.35.02-.53.05-.18.03-.35.07-.52.13-.17.05-.33.12-.49.2-.16.08-.31.17-.46.27-.34.28-.69.55-1.04.81-.35.26-.71.52-1.07.76-.36.25-.73.48-1.11.72s-.75.45-1.14.67c-.38.21-.77.42-1.16.62-.39.2-.79.39-1.19.57-.4.18-.8.35-1.21.52-.41.16-.82.32-1.23.46-.41.15-.83.28-1.25.41-.42.13-.84.25-1.27.35-.43.11-.85.21-1.28.3-.43.09-.86.17-1.29.24s-.87.14-1.3.19c-.44.05-.87.1-1.31.13-.44.03-.88.06-1.31.08-.44.02-.88.02-1.32.02-.44,0-.88-.02-1.32-.04-.44-.02-.88-.05-1.31-.09-.44-.04-.87-.09-1.31-.15s-.87-.13-1.3-.21c-.43-.08-.86-.17-1.29-.26-.43-.1-.85-.2-1.28-.32-.42-.12-.84-.24-1.26-.37-.42-.13-.83-.28-1.25-.43-.41-.15-.82-.31-1.23-.48-.41-.17-.81-.35-1.2-.53-.4-.19-.79-.38-1.18-.58-.39-.2-.77-.41-1.15-.63-.38-.22-.76-.45-1.13-.68-.37-.24-.74-.48-1.1-.73-.36-.25-.71-.51-1.06-.78-.35-.27-.69-.54-1.03-.82-.25-.12-.52-.2-.79-.25-.27-.05-.55-.07-.83-.06-.28.01-.55.06-.82.14-.27.08-.52.19-.76.34-.7.47-1.39.96-2.07,1.47s-1.33,1.04-1.97,1.59c-.64.55-1.26,1.12-1.87,1.71-.61.59-1.19,1.2-1.76,1.82s-1.12,1.27-1.65,1.93c-.53.66-1.04,1.33-1.52,2.03-.49.69-.95,1.4-1.4,2.11s-.86,1.45-1.26,2.2-.77,1.5-1.13,2.27c-.35.77-.68,1.55-.98,2.34-.3.79-.58,1.59-.84,2.39-.26.81-.48,1.62-.69,2.44s-.38,1.65-.54,2.48-.28,1.67-.38,2.5c-.1.84-.18,1.68-.23,2.52s-.08,1.69-.07,2.53c0,.12,0,.23.02.34.01.11.03.23.05.34.02.11.05.22.08.34.03.11.07.22.12.33.04.11.09.21.15.31.05.1.11.2.18.3.06.1.13.19.21.28.07.09.15.17.23.26.08.08.17.16.26.23.09.07.18.14.28.21.1.06.19.12.3.18.1.05.21.1.31.15.11.04.21.08.32.12.11.03.22.06.34.08s.23.04.34.05c.11.01.23.02.34.02h75.7c.12,0,.23,0,.34-.02.11-.01.23-.03.34-.05s.22-.05.34-.08c.11-.03.22-.07.33-.12.11-.04.21-.09.31-.15.1-.05.2-.11.3-.18.1-.06.19-.13.28-.21.09-.07.17-.15.26-.23.08-.08.16-.17.23-.26.07-.09.14-.18.21-.28.06-.1.12-.19.18-.3.05-.1.1-.21.15-.31s.08-.21.12-.33c.03-.11.06-.22.08-.33.02-.11.04-.23.05-.34.01-.11.02-.23.02-.34,0-.84-.03-1.69-.08-2.53s-.13-1.68-.23-2.52c-.1-.84-.23-1.67-.39-2.5-.15-.83-.33-1.65-.54-2.47-.2-.82-.43-1.63-.69-2.43-.25-.8-.53-1.6-.83-2.39-.3-.79-.63-1.56-.98-2.33-.35-.77-.72-1.52-1.12-2.27-.4-.74-.81-1.48-1.25-2.2-.44-.72-.9-1.42-1.39-2.11-.48-.69-.99-1.37-1.51-2.03-.52-.66-1.07-1.3-1.63-1.93-.56-.63-1.15-1.24-1.75-1.83s-1.22-1.16-1.86-1.72-1.29-1.09-1.96-1.6c-.67-.51-1.35-1.01-2.05-1.48Z"/>
  </g>
</svg>