<svg xmlns="http://www.w3.org/2000/svg" xmlns:xlink="http://www.w3.org/1999/xlink" width="500" zoomAndPan="magnify" viewBox="0 0 375 374.999991" height="500" preserveAspectRatio="xMidYMid meet" version="1.0"><defs><clipPath id="d1d007b61a"><path d="M 116.953125 0 L 257.953125 0 L 257.953125 375 L 116.953125 375 Z M 116.953125 0 " clip-rule="nonzero"/></clipPath></defs><g clip-path="url(#d1d007b61a)"><path fill="#46afb4" d="M 164.921875 374.890625 C 156.007812 370.1875 156.058594 370.222656 161.957031 361.316406 C 164.714844 357.160156 166.496094 352.628906 164.722656 347.574219 C 163.835938 345.058594 164.789062 342.75 164.964844 340.367188 C 165.546875 332.074219 163.113281 324.210938 161.605469 316.226562 C 159.589844 305.601562 156.722656 295.085938 157.652344 284.105469 C 158.089844 278.886719 158.710938 273.675781 159.054688 268.449219 C 159.847656 256.488281 156.609375 245.042969 154.300781 233.496094 C 151.570312 219.871094 149.53125 206.179688 149.488281 192.226562 C 149.453125 181.582031 151.605469 171.480469 155.6875 161.726562 C 156.386719 160.046875 157.007812 158.324219 157.851562 156.714844 C 162.507812 147.765625 163.492188 138.515625 160.511719 128.828125 C 159.21875 124.644531 158.632812 120.292969 158.132812 115.472656 C 156.25 117.566406 156.714844 119.957031 156.160156 121.992188 C 153.191406 133.058594 153.011719 144.613281 150.253906 155.722656 C 148.644531 162.214844 145.777344 168.277344 143.441406 174.523438 C 141.632812 179.363281 140.617188 184.246094 140.753906 189.472656 C 140.996094 198.480469 137.75 206.617188 133.53125 214.359375 C 131.585938 217.917969 127.753906 218.355469 124.496094 216.402344 C 122.886719 215.4375 123.144531 214.300781 123.128906 213.066406 C 123.050781 207.746094 123.628906 202.457031 125.003906 196.378906 C 122.449219 198.730469 120.507812 200.425781 116.9375 199.167969 C 122.464844 195.226562 123.214844 188.542969 127.828125 184.140625 C 131.316406 180.808594 130.921875 175.367188 131.972656 170.792969 C 134.546875 159.511719 134.253906 147.714844 137.398438 136.585938 C 140.625 125.195312 143.160156 113.757812 144.121094 101.960938 C 144.699219 94.925781 144.414062 87.84375 145.820312 80.851562 C 146.949219 75.195312 150.074219 71.621094 155.378906 69.449219 C 160.65625 67.289062 165.695312 64.578125 170.886719 62.21875 C 175.761719 60.003906 176.589844 55.558594 177.078125 51.039062 C 177.320312 48.800781 175.324219 49.867188 174.496094 50.050781 C 170.335938 50.980469 166.554688 50.082031 162.84375 48.171875 C 166.496094 43.167969 167.5625 37.46875 167.824219 31.578125 C 168.003906 27.683594 167.761719 23.765625 167.917969 19.875 C 168.269531 10.960938 172.171875 4.191406 180.292969 0.109375 C 185.175781 0.109375 190.050781 0.109375 194.933594 0.109375 C 204.628906 4.96875 207.644531 13.328125 207.382812 23.535156 C 207.265625 28.269531 207.058594 33.039062 208.082031 37.742188 C 208.882812 41.453125 209.941406 45.046875 212.421875 48.15625 C 208.890625 49.929688 205.308594 51.109375 201.449219 50.082031 C 198.503906 49.300781 198.195312 50.523438 198.539062 52.976562 C 199.125 57.179688 200.582031 60.589844 204.816406 62.441406 C 209.269531 64.378906 213.394531 67.203125 217.976562 68.667969 C 226.167969 71.285156 229.457031 76.960938 230.066406 84.976562 C 230.972656 96.992188 231.195312 109.066406 233.660156 120.941406 C 235.335938 129.027344 238.636719 136.699219 239.539062 144.976562 C 240.738281 155.851562 242.148438 166.703125 244.613281 177.390625 C 245.429688 180.921875 246.464844 184.148438 249.425781 186.507812 C 251.191406 187.921875 251.976562 190.007812 252.726562 192.089844 C 253.714844 194.863281 255.980469 196.792969 258.074219 199.261719 C 254.871094 200.390625 252.898438 198.910156 250.398438 196.351562 C 251.277344 201.933594 252.035156 206.617188 252.140625 211.378906 C 252.199219 214.257812 252.035156 216.925781 248.789062 217.425781 C 246.152344 217.832031 243.253906 217.339844 241.78125 214.582031 C 237.558594 206.695312 234.253906 198.480469 234.460938 189.34375 C 234.554688 185.003906 234.246094 180.757812 232.539062 176.820312 C 226.492188 162.886719 222.714844 148.429688 221.25 133.296875 C 220.722656 127.882812 219.304688 122.550781 218.261719 117.1875 C 218.132812 116.503906 218.097656 115.703125 217.0625 115.28125 C 216.5625 122.113281 214.773438 128.621094 213.359375 135.210938 C 212.058594 141.273438 213.335938 147.023438 215.652344 152.640625 C 218.890625 160.484375 222.539062 168.15625 224.230469 176.582031 C 226.554688 188.222656 225.753906 199.847656 224.539062 211.507812 C 222.960938 226.65625 218.699219 241.324219 216.574219 256.375 C 215.574219 263.445312 215.953125 270.523438 216.96875 277.519531 C 218.707031 289.453125 216.8125 301.019531 214.378906 312.636719 C 212.65625 320.824219 210.304688 328.945312 210.226562 337.410156 C 210.183594 342.105469 210.8125 346.710938 209.90625 351.507812 C 209.175781 355.417969 211.664062 359.191406 214.074219 362.488281 C 219.421875 369.800781 218.65625 371.996094 209.941406 374.339844 C 209.777344 374.382812 209.691406 374.699219 209.570312 374.890625 C 207.375 374.890625 205.179688 374.890625 202.984375 374.890625 C 201.683594 373.96875 200.476562 372.953125 200.011719 371.332031 C 197.316406 361.964844 195.136719 352.484375 196.921875 342.683594 C 198.859375 332.046875 199.554688 321.472656 197.273438 310.792969 C 195.292969 301.46875 194.421875 292.082031 195.507812 282.511719 C 196 278.191406 195.84375 273.730469 195.441406 269.378906 C 193.855469 252.65625 192.8125 235.878906 190.539062 219.234375 C 189.574219 212.207031 189.84375 205.121094 189.714844 198.066406 C 189.660156 195.558594 188.273438 195.621094 186.734375 195.828125 C 184.855469 196.085938 185.589844 197.773438 185.605469 198.78125 C 185.976562 216.890625 182.316406 234.65625 181.214844 252.628906 C 180.464844 264.894531 178.550781 277.105469 180.101562 289.445312 C 180.707031 294.300781 180.078125 299.160156 179.09375 303.964844 C 176.632812 316.082031 175.261719 328.199219 177.992188 340.511719 C 180.214844 350.511719 178.183594 360.292969 175.738281 369.972656 C 175.21875 372.015625 174.125 373.761719 172.238281 374.890625 C 169.804688 374.890625 167.355469 374.890625 164.921875 374.890625 " fill-opacity="1" fill-rule="nonzero"/></g></svg>