<?xml version="1.0" encoding="UTF-8"?>
<svg id="Layer_2" data-name="Layer 2" xmlns="http://www.w3.org/2000/svg" xmlns:xlink="http://www.w3.org/1999/xlink" viewBox="0 0 100 100">
  <defs>
    <style>
      .cls-1, .cls-2 {
        opacity: .5;
      }

      .cls-3, .cls-2 {
        fill: #06b6b1;
      }

      .cls-3, .cls-2, .cls-4 {
        stroke-width: 0px;
      }

      .cls-5 {
        clip-path: url(#clippath-2);
      }

      .cls-4 {
        fill: none;
      }

      .cls-6 {
        clip-path: url(#clippath-1);
      }

      .cls-7 {
        clip-path: url(#clippath);
      }

      .cls-8 {
        clip-path: url(#clippath-3);
      }
    </style>
    <clipPath id="clippath">
      <rect class="cls-4" x="63.73" y="21.89" width="14.76" height="8.49"/>
    </clipPath>
    <clipPath id="clippath-1">
      <rect class="cls-4" x="21.5" y="21.89" width="14.76" height="8.49"/>
    </clipPath>
    <clipPath id="clippath-2">
      <rect class="cls-4" x="8.41" y="43.21" width="34.91" height="34.9"/>
    </clipPath>
    <clipPath id="clippath-3">
      <rect class="cls-4" x="56.67" y="43.21" width="34.91" height="34.9"/>
    </clipPath>
  </defs>
  <g class="cls-7">
    <g class="cls-1">
      <path class="cls-3" d="M72.18,27.56c2.61-.16,4.6-.03,6.31.4l-.58-1.85c-.88-2.88-3.02-4.22-6.73-4.22-1.85,0-3.57.46-4.86,1.3-1.18.77-1.84,1.77-1.84,2.8,0,.07,0,.12-.64,4.26.39-.32.8-.61,1.23-.87,1.79-1.08,3.92-1.63,7.11-1.82Z"/>
    </g>
  </g>
  <path class="cls-2" d="M63.43,45.02c3.16-2.17,6.87-3.32,10.72-3.32s7.62,1.16,10.8,3.37c1.54,1.07,2.9,2.34,4.05,3.78l-5.48-15.88c-3.06-3.62-6.45-4.17-11.26-3.88-5.99.36-7.45,1.97-10.47,5.48l-2.87,14.74c1.24-1.66,2.75-3.11,4.49-4.31Z"/>
  <path class="cls-2" d="M59.8,36.78l-4.47,1.18c.02.16.02.32.02.49l.74,12.15h1.01l2.69-13.82Z"/>
  <path class="cls-2" d="M54.49,49.61l-.68-11.09s0-.03,0-.05c0-2.1-1.71-3.81-3.81-3.81s-3.81,1.71-3.81,3.81c0,.02,0,.03,0,.05l-.65,11.06c1.15-1.14,2.72-1.84,4.46-1.84s3.34.72,4.49,1.87Z"/>
  <path class="cls-2" d="M42.96,50.6h.98l.71-12.15c0-.16,0-.33.03-.49l-4.47-1.18,2.75,13.82Z"/>
  <g class="cls-6">
    <g class="cls-1">
      <path class="cls-3" d="M27.83,27.56c3.19.19,5.32.74,7.11,1.82.43.26.84.55,1.23.87-.65-4.14-.65-4.19-.65-4.26,0-1.03-.65-2.03-1.84-2.8-1.29-.84-3.01-1.3-4.86-1.3-3.71,0-5.84,1.34-6.73,4.22l-.58,1.85c1.71-.43,3.7-.56,6.31-.4Z"/>
    </g>
  </g>
  <path class="cls-2" d="M15.06,45.07c3.18-2.2,6.91-3.37,10.8-3.37s7.56,1.15,10.72,3.32c1.74,1.19,3.25,2.65,4.49,4.31l-2.87-14.74c-3.02-3.51-4.48-5.12-10.47-5.48-4.8-.29-8.19.26-11.26,3.88l-5.47,15.88c1.15-1.44,2.51-2.72,4.05-3.78Z"/>
  <g class="cls-5">
    <g class="cls-1">
      <path class="cls-3" d="M41.97,54.01c-2.71-6.54-9.03-10.76-16.12-10.76s-13.54,4.31-16.21,10.97l-.02.06c-.81,2.04-1.21,4.2-1.21,6.41,0,9.62,7.82,17.44,17.44,17.44s17.44-7.83,17.44-17.44c0-2.27-.43-4.48-1.28-6.57l-.05-.11ZM35.76,70.6c-2.65,2.65-6.16,4.1-9.91,4.1s-7.26-1.46-9.91-4.1-4.1-6.16-4.1-9.91,1.46-7.26,4.1-9.91,6.16-4.1,9.91-4.1,7.26,1.46,9.91,4.1c2.65,2.65,4.1,6.16,4.1,9.91s-1.46,7.26-4.1,9.91Z"/>
    </g>
  </g>
  <path class="cls-2" d="M50,49.29c-2.26,0-4.16,1.57-4.66,3.68l-.1,1.66c.28,2.38,2.3,4.23,4.76,4.23s4.63-1.99,4.78-4.5l-.07-1.16c-.41-2.23-2.37-3.92-4.71-3.92Z"/>
  <g class="cls-8">
    <g class="cls-1">
      <path class="cls-3" d="M90.38,54.29l-.03-.08c-2.67-6.66-9.02-10.96-16.2-10.96s-13.43,4.24-16.13,10.8l-.03.08c-.85,2.08-1.28,4.29-1.28,6.57,0,9.62,7.83,17.44,17.44,17.44s17.44-7.83,17.44-17.44c0-2.21-.41-4.37-1.21-6.41ZM84.06,70.6c-2.65,2.65-6.16,4.1-9.91,4.1s-7.26-1.46-9.91-4.1c-2.65-2.65-4.1-6.16-4.1-9.91s1.46-7.26,4.1-9.91,6.16-4.1,9.91-4.1,7.26,1.46,9.91,4.1c2.65,2.65,4.1,6.16,4.1,9.91s-1.46,7.26-4.1,9.91Z"/>
    </g>
  </g>
</svg>