<svg xmlns="http://www.w3.org/2000/svg" xmlns:xlink="http://www.w3.org/1999/xlink" width="500" zoomAndPan="magnify" viewBox="0 0 375 374.999991" height="500" preserveAspectRatio="xMidYMid meet" version="1.0"><defs><clipPath id="1e2782653b"><path d="M 30.46875 204 L 94 204 L 94 267 L 30.46875 267 Z M 30.46875 204 " clip-rule="nonzero"/></clipPath><clipPath id="ca1ce5a3e1"><path d="M 290 155 L 344.71875 155 L 344.71875 210 L 290 210 Z M 290 155 " clip-rule="nonzero"/></clipPath></defs><path fill="#46afb4" d="M 93.289062 357.097656 C 89.308594 360.914062 85.523438 365.84375 82.628906 370.980469 C 81.898438 372.277344 82.359375 373.921875 83.65625 374.652344 C 84.074219 374.890625 84.527344 375 84.976562 375 C 85.917969 375 86.832031 374.507812 87.328125 373.628906 C 89.96875 368.9375 93.410156 364.449219 97.019531 360.988281 C 98.09375 359.960938 98.128906 358.253906 97.101562 357.179688 C 96.070312 356.105469 94.363281 356.070312 93.289062 357.097656 Z M 93.289062 357.097656 " fill-opacity="1" fill-rule="nonzero"/><path fill="#46afb4" d="M 262.777344 344.933594 L 251.917969 340.644531 C 233.199219 333.253906 220.09375 315.515625 218.527344 295.453125 L 217.441406 281.574219 C 222.492188 277.574219 227.214844 272.730469 231.480469 267.109375 C 261.722656 244.011719 280.496094 199.335938 280.496094 150.390625 C 280.496094 135.574219 276.589844 123.109375 268.554688 112.28125 C 262.488281 104.105469 254.140625 96.933594 242.425781 89.847656 C 247.589844 82.351562 250.667969 73.632812 250.667969 63.152344 C 250.667969 28.328125 222.339844 0 187.519531 0 C 152.695312 0 124.367188 28.328125 124.367188 63.152344 C 124.367188 69.09375 124.964844 74.890625 126.128906 80.417969 C 109.027344 97.28125 94.542969 118.210938 94.542969 150.390625 C 94.542969 198.945312 113.09375 243.449219 142.980469 266.667969 C 147.390625 272.585938 152.304688 277.664062 157.574219 281.808594 L 156.507812 295.453125 C 155.550781 307.695312 150.328125 319.308594 141.796875 328.152344 C 140.761719 329.222656 140.792969 330.929688 141.863281 331.960938 C 142.386719 332.46875 143.0625 332.71875 143.734375 332.71875 C 144.441406 332.71875 145.148438 332.441406 145.675781 331.894531 C 155.074219 322.15625 160.828125 309.363281 161.882812 295.875 L 162.695312 285.46875 C 170.328125 290.40625 178.566406 293.484375 187.027344 294.449219 C 187.128906 294.460938 187.230469 294.46875 187.332031 294.46875 C 187.433594 294.46875 187.539062 294.460938 187.640625 294.449219 C 196.214844 293.472656 204.578125 290.320312 212.324219 285.265625 L 213.152344 295.875 C 214.878906 317.972656 229.316406 337.515625 249.9375 345.660156 L 260.796875 349.945312 C 272.21875 354.457031 281.78125 362.859375 287.726562 373.609375 C 288.21875 374.5 289.136719 375 290.085938 375 C 290.527344 375 290.976562 374.890625 291.386719 374.664062 C 292.691406 373.941406 293.164062 372.304688 292.441406 371 C 285.894531 359.160156 275.359375 349.902344 262.777344 344.933594 Z M 275.105469 150.390625 C 275.105469 189.679688 262.707031 226.015625 241.929688 249.867188 C 249.679688 233.8125 254.414062 214.40625 255.761719 192.660156 C 256.214844 185.332031 253.023438 178.269531 247.21875 173.765625 C 239.847656 168.050781 228.671875 162.765625 215.726562 156.648438 C 202.566406 150.425781 187.796875 143.4375 174.265625 134.617188 C 179.179688 132.042969 184.210938 129.539062 189.113281 127.105469 C 196.976562 123.203125 204.902344 119.265625 212.335938 114.992188 C 213.929688 115.925781 216.019531 117.0625 217.550781 117.957031 C 232.09375 126.4375 244.652344 133.765625 251.050781 144.769531 C 251.550781 145.632812 252.453125 146.113281 253.382812 146.113281 C 253.84375 146.113281 254.308594 145.992188 254.734375 145.746094 C 256.023438 144.996094 256.457031 143.347656 255.710938 142.0625 C 248.597656 129.824219 234.835938 121.796875 220.265625 113.300781 C 219.414062 112.804688 218.546875 112.292969 217.6875 111.792969 C 225.980469 106.625 233.425781 100.902344 239.128906 94.152344 C 257.234375 104.964844 275.105469 120.285156 275.105469 150.390625 Z M 168.4375 8.636719 C 161.394531 13.574219 156.425781 21.160156 154.757812 29.703125 C 154.082031 25.515625 153.574219 21.175781 153.242188 16.703125 C 157.839844 13.304688 162.945312 10.5625 168.4375 8.636719 Z M 148.179688 20.910156 C 149.371094 33.132812 151.855469 44.347656 155.59375 54.339844 C 152.285156 57.289062 148.890625 60.1875 145.316406 63.230469 C 140.515625 67.316406 135.589844 71.519531 130.777344 75.976562 C 130.101562 71.828125 129.757812 67.535156 129.757812 63.152344 C 129.757812 46.488281 136.855469 31.460938 148.179688 20.910156 Z M 99.929688 150.390625 C 99.929688 108.957031 124.78125 87.796875 148.8125 67.335938 C 152.730469 63.996094 156.785156 60.546875 160.5625 57.132812 C 184.277344 36.148438 189.445312 16.652344 190.125 5.457031 C 199.378906 5.871094 208.066406 8.480469 215.695312 12.765625 C 225.980469 49.613281 201.851562 63.128906 173.949219 78.753906 C 153.199219 90.371094 131.746094 102.382812 121.183594 125.214844 C 120.558594 126.5625 121.144531 128.164062 122.496094 128.792969 C 122.863281 128.960938 123.246094 129.039062 123.625 129.039062 C 124.644531 129.039062 125.617188 128.460938 126.074219 127.476562 C 135.902344 106.230469 156.582031 94.652344 176.582031 83.457031 C 191.121094 75.316406 204.851562 67.628906 213.757812 56.640625 C 222.59375 45.734375 225.40625 32.742188 222.273438 17.070312 C 236.234375 27.621094 245.28125 44.34375 245.28125 63.152344 C 245.28125 93.210938 216.835938 107.328125 186.71875 122.277344 C 180.515625 125.355469 173.886719 128.652344 167.730469 131.980469 C 150.761719 141.183594 132.214844 153.171875 123.316406 172.316406 C 120.199219 179.023438 118.832031 186.664062 119.363281 194.417969 C 120.796875 215.226562 125.363281 233.871094 132.714844 249.398438 C 112.183594 225.527344 99.929688 189.359375 99.929688 150.390625 Z M 187.332031 289.058594 C 172.382812 287.25 158.105469 278.070312 147.097656 263.175781 C 134.402344 246 126.671875 222.097656 124.742188 194.046875 C 124.269531 187.199219 125.46875 180.472656 128.203125 174.589844 C 136.199219 157.390625 153.070312 146.179688 168.859375 137.507812 C 183.363281 147.308594 199.304688 154.847656 213.425781 161.519531 C 226.082031 167.503906 237.011719 172.671875 243.914062 178.023438 C 248.308594 181.433594 250.726562 186.78125 250.382812 192.328125 C 248.582031 221.363281 240.632812 246.003906 227.390625 263.585938 C 216.363281 278.230469 202.148438 287.265625 187.332031 289.058594 Z M 187.332031 289.058594 " fill-opacity="1" fill-rule="nonzero"/><path fill="#46afb4" d="M 309.613281 298.386719 L 290.246094 291.640625 C 288.789062 291.132812 287.644531 289.988281 287.136719 288.53125 L 280.390625 269.164062 C 280.003906 268.046875 278.421875 268.046875 278.03125 269.164062 L 271.289062 288.53125 C 270.78125 289.988281 269.636719 291.132812 268.179688 291.640625 L 248.8125 298.386719 C 247.695312 298.773438 247.695312 300.355469 248.8125 300.742188 L 268.179688 307.488281 C 269.636719 307.996094 270.78125 309.140625 271.289062 310.597656 L 278.03125 329.964844 C 278.421875 331.082031 280.003906 331.082031 280.390625 329.964844 L 287.136719 310.597656 C 287.644531 309.140625 288.789062 307.996094 290.246094 307.488281 L 309.613281 300.742188 C 310.730469 300.355469 310.730469 298.773438 309.613281 298.386719 Z M 309.613281 298.386719 " fill-opacity="1" fill-rule="nonzero"/><path fill="#46afb4" d="M 141.539062 339.886719 L 122.171875 333.144531 C 120.714844 332.636719 119.570312 331.492188 119.0625 330.035156 L 112.320312 310.667969 C 111.929688 309.550781 110.347656 309.550781 109.960938 310.667969 L 103.214844 330.035156 C 102.707031 331.492188 101.5625 332.636719 100.105469 333.144531 L 80.738281 339.886719 C 79.621094 340.277344 79.621094 341.859375 80.738281 342.246094 L 100.105469 348.992188 C 101.5625 349.5 102.707031 350.644531 103.214844 352.097656 L 109.960938 371.464844 C 110.347656 372.585938 111.929688 372.585938 112.320312 371.464844 L 119.0625 352.097656 C 119.570312 350.644531 120.714844 349.5 122.171875 348.992188 L 141.539062 342.246094 C 142.65625 341.859375 142.65625 340.277344 141.539062 339.886719 Z M 141.539062 339.886719 " fill-opacity="1" fill-rule="nonzero"/><g clip-path="url(#1e2782653b)"><path fill="#46afb4" d="M 92.398438 234.207031 L 73.03125 227.460938 C 71.574219 226.953125 70.429688 225.808594 69.925781 224.355469 L 63.179688 204.988281 C 62.789062 203.867188 61.210938 203.867188 60.820312 204.988281 L 54.074219 224.355469 C 53.566406 225.808594 52.421875 226.953125 50.96875 227.460938 L 31.601562 234.207031 C 30.480469 234.59375 30.480469 236.175781 31.601562 236.566406 L 50.96875 243.308594 C 52.421875 243.816406 53.566406 244.960938 54.074219 246.417969 L 60.820312 265.785156 C 61.210938 266.902344 62.789062 266.902344 63.179688 265.785156 L 69.925781 246.417969 C 70.429688 244.960938 71.574219 243.816406 73.03125 243.308594 L 92.398438 236.566406 C 93.515625 236.175781 93.515625 234.59375 92.398438 234.207031 Z M 92.398438 234.207031 " fill-opacity="1" fill-rule="nonzero"/></g><g clip-path="url(#ca1ce5a3e1)"><path fill="#46afb4" d="M 343.515625 181.308594 L 326.867188 175.507812 C 325.613281 175.074219 324.628906 174.089844 324.195312 172.835938 L 318.394531 156.1875 C 318.058594 155.226562 316.699219 155.226562 316.367188 156.1875 L 310.566406 172.835938 C 310.132812 174.089844 309.148438 175.074219 307.894531 175.507812 L 291.242188 181.308594 C 290.28125 181.644531 290.28125 183.003906 291.242188 183.335938 L 307.894531 189.136719 C 309.148438 189.570312 310.132812 190.554688 310.566406 191.808594 L 316.367188 208.460938 C 316.699219 209.421875 318.058594 209.421875 318.394531 208.460938 L 324.195312 191.808594 C 324.628906 190.554688 325.613281 189.570312 326.867188 189.136719 L 343.515625 183.335938 C 344.476562 183.003906 344.476562 181.644531 343.515625 181.308594 Z M 343.515625 181.308594 " fill-opacity="1" fill-rule="nonzero"/></g></svg>