<svg xmlns="http://www.w3.org/2000/svg" xmlns:xlink="http://www.w3.org/1999/xlink" width="500" zoomAndPan="magnify" viewBox="0 0 375 374.999991" height="500" preserveAspectRatio="xMidYMid meet" version="1.0"><defs><clipPath id="ec01cdba1a"><path d="M 0 75.46875 L 375 75.46875 L 375 299 L 0 299 Z M 0 75.46875 " clip-rule="nonzero"/></clipPath></defs><g clip-path="url(#ec01cdba1a)"><path fill="#46afb4" d="M 374.925781 223.789062 C 374.964844 223.542969 374.941406 223.304688 374.925781 223.054688 C 374.914062 222.8125 374.914062 222.566406 374.851562 222.328125 C 374.792969 222.085938 374.679688 221.871094 374.578125 221.648438 C 374.472656 221.421875 374.382812 221.203125 374.234375 221 C 374.082031 220.789062 373.886719 220.628906 373.691406 220.449219 C 373.550781 220.320312 373.453125 220.15625 373.292969 220.042969 C 372.21875 219.316406 347.761719 203.089844 314.53125 197.035156 C 326.472656 165.734375 325.246094 136.386719 325.160156 134.601562 C 325.148438 134.382812 325.050781 134.199219 325.007812 133.992188 C 324.957031 133.765625 324.929688 133.542969 324.847656 133.335938 C 324.726562 133.042969 324.554688 132.796875 324.371094 132.546875 C 324.269531 132.40625 324.191406 132.261719 324.074219 132.140625 C 323.839844 131.898438 323.574219 131.722656 323.289062 131.546875 C 323.144531 131.460938 323.023438 131.363281 322.867188 131.292969 C 322.601562 131.175781 322.308594 131.125 322.007812 131.070312 C 321.835938 131.039062 321.6875 130.953125 321.507812 130.941406 C 319.511719 130.839844 273.765625 128.699219 235.105469 153.488281 C 225.234375 109.074219 191.761719 78.28125 190.097656 76.777344 C 189.941406 76.640625 189.753906 76.585938 189.582031 76.472656 C 189.371094 76.332031 189.175781 76.183594 188.941406 76.089844 C 188.707031 75.992188 188.46875 75.957031 188.226562 75.914062 C 187.984375 75.867188 187.75 75.808594 187.503906 75.808594 C 187.257812 75.808594 187.023438 75.867188 186.78125 75.914062 C 186.539062 75.957031 186.296875 75.992188 186.066406 76.089844 C 185.832031 76.183594 185.632812 76.332031 185.421875 76.472656 C 185.253906 76.582031 185.066406 76.636719 184.910156 76.773438 C 183.246094 78.277344 149.730469 109.109375 139.886719 153.5625 C 101.257812 128.878906 55.519531 130.816406 53.519531 130.933594 C 53.378906 130.941406 53.261719 131.015625 53.121094 131.035156 C 52.761719 131.082031 52.421875 131.144531 52.101562 131.292969 C 52.007812 131.335938 51.9375 131.398438 51.851562 131.445312 C 51.511719 131.636719 51.195312 131.847656 50.929688 132.136719 C 50.820312 132.246094 50.753906 132.378906 50.660156 132.507812 C 50.46875 132.765625 50.292969 133.015625 50.167969 133.316406 C 50.074219 133.539062 50.046875 133.777344 49.996094 134.015625 C 49.953125 134.214844 49.859375 134.394531 49.847656 134.601562 C 49.757812 136.390625 48.53125 165.796875 60.511719 197.128906 C 27.253906 203.183594 2.773438 219.429688 1.699219 220.152344 C 1.535156 220.265625 1.4375 220.429688 1.296875 220.5625 C 1.105469 220.734375 0.910156 220.898438 0.757812 221.105469 C 0.605469 221.3125 0.515625 221.535156 0.410156 221.765625 C 0.308594 221.988281 0.195312 222.191406 0.140625 222.433594 C 0.078125 222.675781 0.078125 222.925781 0.0664062 223.175781 C 0.0546875 223.417969 0.03125 223.652344 0.0664062 223.894531 C 0.105469 224.152344 0.203125 224.398438 0.292969 224.648438 C 0.359375 224.824219 0.363281 225.015625 0.457031 225.1875 C 1.695312 227.503906 31.542969 282.066406 86.984375 295.796875 C 95.226562 297.835938 103.585938 298.855469 112.046875 298.855469 C 136.492188 298.855469 161.800781 290.28125 187.578125 273.363281 C 213.304688 290.214844 238.550781 298.753906 262.949219 298.753906 C 271.40625 298.753906 279.773438 297.734375 288.011719 295.695312 C 343.449219 281.964844 373.296875 227.402344 374.535156 225.082031 C 374.628906 224.90625 374.636719 224.71875 374.703125 224.535156 C 374.792969 224.28125 374.894531 224.046875 374.925781 223.789062 Z M 317.472656 138.59375 C 317.375 152.230469 314.65625 201.710938 282.015625 234.316406 C 261.578125 254.726562 233.046875 264.964844 197.195312 264.925781 C 224.15625 238.082031 237.84375 208.789062 237.84375 177.734375 C 237.84375 172.253906 237.414062 166.914062 236.648438 161.730469 C 267.730469 140.546875 305.75 138.640625 317.472656 138.59375 Z M 187.507812 85.046875 C 195.878906 93.546875 222.09375 122.761719 228.609375 160.726562 C 228.617188 160.773438 228.621094 160.816406 228.632812 160.867188 C 229.566406 166.34375 230.113281 171.988281 230.109375 177.792969 C 230.089844 208.25 215.738281 237.070312 187.507812 263.527344 C 159.28125 237.070312 144.925781 208.25 144.90625 177.792969 C 144.882812 131.683594 177.921875 94.777344 187.507812 85.046875 Z M 138.355469 161.8125 C 137.597656 166.972656 137.175781 172.285156 137.175781 177.738281 C 137.175781 208.792969 150.867188 238.085938 177.824219 264.933594 C 141.953125 264.980469 113.4375 254.738281 93.003906 234.324219 C 60.375 201.734375 57.644531 152.269531 57.546875 138.609375 C 69.277344 138.6875 107.246094 140.6875 138.355469 161.8125 Z M 88.902344 288.292969 C 44.128906 277.238281 16.25 236.28125 9.113281 224.644531 C 16.691406 220.132812 37.640625 208.851562 63.5625 204.445312 C 69.078125 216.730469 76.753906 229.007812 87.492188 239.75 C 108.71875 260.972656 137.820312 271.988281 174.097656 272.632812 C 144.5625 289.6875 115.957031 294.980469 88.902344 288.292969 Z M 286.160156 288.1875 C 259.140625 294.875 230.570312 289.628906 201.066406 272.632812 C 237.269531 271.953125 266.328125 260.945312 287.523438 239.75 C 298.289062 228.980469 305.972656 216.671875 311.488281 204.355469 C 337.339844 208.765625 358.300781 220.042969 365.886719 224.550781 C 358.769531 236.179688 330.964844 277.085938 286.160156 288.1875 Z M 286.160156 288.1875 " fill-opacity="1" fill-rule="nonzero"/></g></svg>