<svg width="500" height="500" viewBox="0 0 500 500" fill="none" xmlns="http://www.w3.org/2000/svg">
<g clip-path="url(#clip0_1264_120)">
<path opacity="0.1" d="M290.01 84.7763L290.009 84.7749C270.399 57.3232 229.601 57.3232 209.991 84.7749L209.99 84.7763L206.024 90.3305C206.024 90.331 206.024 90.3315 206.023 90.332C198.828 100.404 186.749 105.796 174.448 104.429L174.447 104.429L156.76 102.464C156.76 102.464 156.76 102.464 156.76 102.464C125.445 98.9848 98.9847 125.445 102.464 156.76C102.464 156.76 102.464 156.76 102.464 156.76L104.429 174.448L104.429 174.448C105.796 186.749 100.403 198.828 90.3318 206.023C90.3313 206.024 90.3308 206.024 90.3303 206.024L84.7762 209.99L84.7748 209.991C57.3231 229.601 57.3231 270.399 84.7748 290.009L84.7762 290.01L90.3302 293.976C100.403 301.172 105.796 313.252 104.429 325.553L104.429 325.553L102.464 343.241C98.9847 374.554 125.444 401.016 156.759 397.535C156.76 397.535 156.76 397.535 156.76 397.535L174.447 395.571L173.636 388.266L174.447 395.571C186.749 394.204 198.829 399.597 206.024 409.67L209.99 415.223L209.991 415.224C229.601 442.676 270.399 442.676 290.009 415.224L290.009 415.223L293.976 409.67C301.171 399.597 313.251 394.204 325.553 395.571L326.381 388.117L325.553 395.571L343.24 397.535C343.24 397.535 343.241 397.535 343.241 397.535C374.555 401.016 401.016 374.555 397.535 343.241C397.535 343.241 397.535 343.24 397.535 343.24L395.571 325.553L388.117 326.381L395.571 325.553C394.204 313.251 399.597 301.171 409.67 293.976L415.223 290.01L415.224 290.009C442.676 270.399 442.676 229.601 415.224 209.991L415.223 209.991L409.67 206.024C399.597 198.829 394.204 186.75 395.571 174.448L388.266 173.636L395.571 174.447L397.535 156.76C397.535 156.76 397.535 156.76 397.535 156.759C401.016 125.444 374.554 98.9848 343.24 102.464L325.553 104.429L325.553 104.429C313.251 105.796 301.171 100.403 293.976 90.3303L290.01 84.7763Z" fill="#0CB4BF" stroke="black" stroke-width="15"/>
<path d="M287.873 94.6901L283.906 89.1344C267.287 65.8701 232.712 65.8701 216.094 89.1344L212.127 94.6901C203.352 106.973 188.622 113.551 173.619 111.884L155.931 109.918C129.393 106.97 106.97 129.393 109.918 155.932L111.883 173.619C113.551 188.622 106.973 203.353 94.6899 212.127L89.1343 216.094C65.8699 232.713 65.8699 267.288 89.1343 283.906L94.6899 287.873C106.973 296.648 113.551 311.379 111.883 326.381L109.918 344.069C106.97 370.606 129.393 393.031 155.931 390.081L173.619 388.117C188.622 386.45 203.352 393.027 212.127 405.31L216.094 410.865C232.712 434.129 267.287 434.129 283.906 410.865L287.873 405.31C296.648 393.027 311.379 386.45 326.381 388.117L344.069 390.081C370.606 393.031 393.031 370.606 390.081 344.069L388.117 326.381C386.45 311.379 393.027 296.648 405.31 287.873L410.864 283.906C434.129 267.288 434.129 232.713 410.864 216.094L405.31 212.127C393.027 203.353 386.45 188.622 388.117 173.619L390.081 155.932C393.031 129.393 370.606 106.97 344.069 109.918L326.381 111.884C311.379 113.551 296.648 106.973 287.873 94.6901Z" stroke="#0CB4BF" stroke-width="30" stroke-linecap="round" stroke-linejoin="round"/>
<path d="M187.5 250L225.394 287.894C227.477 289.977 230.856 289.977 232.94 287.894L312.5 208.333" stroke="#0CB4BF" stroke-width="30" stroke-linecap="round" stroke-linejoin="round"/>
</g>
<defs>
<clipPath id="clip0_1264_120">
<rect width="500" height="500" fill="white"/>
</clipPath>
</defs>
</svg>
