<?xml version="1.0" encoding="utf-8"?>
<!-- Generator: Adobe Illustrator 28.1.0, SVG Export Plug-In . SVG Version: 6.00 Build 0)  -->
<svg version="1.1" id="Layer_1" xmlns="http://www.w3.org/2000/svg" xmlns:xlink="http://www.w3.org/1999/xlink" x="0px" y="0px"
	 viewBox="0 0 800 800" style="enable-background:new 0 0 800 800;" xml:space="preserve">
<style type="text/css">
	.st0{fill:#C60A1D;}
	.st1{fill:#FFC400;}
	.st2{fill:#EA596E;}
	.st3{fill:#F4A2B2;}
	.st4{fill:#DD2E44;}
	.st5{fill:#FFAC33;}
	.st6{fill:#99AAB5;}
	.st7{fill:#66757F;}
</style>
<rect x="-1" y="-0.8" class="st0" width="802" height="801.7"/>
<rect x="-1" y="215" class="st1" width="802" height="370"/>
<path class="st2" d="M122.5,369.2v92.5c0,51.1,41.4,92.5,92.5,92.5s92.5-41.4,92.5-92.5v-92.5H122.5z"/>
<path class="st3" d="M215,338.3h92.5v92.5H215V338.3z"/>
<path class="st4" d="M122.5,338.3H215v92.5h-92.5V338.3z"/>
<ellipse class="st2" cx="215" cy="292.1" rx="92.5" ry="46.2"/>
<ellipse class="st5" cx="215" cy="269" rx="92.5" ry="23.1"/>
<path class="st6" d="M60.8,338.3h30.8v215.8H60.8V338.3z M338.3,338.3h30.8v215.8h-30.8V338.3z"/>
<path class="st7" d="M30,523.3h92.5v30.8H30V523.3z M307.5,523.3H400v30.8h-92.5V523.3z M60.8,307.5h30.8v30.8H60.8V307.5z
	 M338.3,307.5h30.8v30.8h-30.8V307.5z"/>
</svg>
