<?xml version="1.0" encoding="UTF-8"?>
<svg id="Layer_1" data-name="Layer 1" xmlns="http://www.w3.org/2000/svg" viewBox="0 0 498.22 497.23">
  <defs>
    <style>
      .cls-1 {
        fill: #49a948;
      }

      .cls-1, .cls-2, .cls-3, .cls-4, .cls-5, .cls-6, .cls-7, .cls-8, .cls-9, .cls-10, .cls-11, .cls-12 {
        stroke-width: 0px;
      }

      .cls-2 {
        fill: #3f3f3f;
      }

      .cls-3 {
        fill: #b70808;
      }

      .cls-4 {
        fill: #232222;
      }

      .cls-5 {
        fill: #db2c2c;
      }

      .cls-6 {
        fill: #1c8417;
      }

      .cls-7 {
        fill: #4c4b4b;
      }

      .cls-8 {
        fill: #fff;
      }

      .cls-9 {
        fill: #cc2525;
      }

      .cls-10 {
        fill: #e73b36;
      }

      .cls-11 {
        fill: #cfe5e2;
      }

      .cls-12 {
        fill: #369933;
      }
    </style>
  </defs>
  <path class="cls-7" d="M498.22,331.48H.33v97.08c0,40.25,31.96,68.66,71.03,68.66h426.86v-165.74Z"/>
  <path class="cls-1" d="M498.22,0H71.37C32.3,0,.33,28.41.33,68.66v97.08h497.89V0Z"/>
  <rect class="cls-8" x=".33" y="165.74" width="497.89" height="165.74"/>
  <polygon class="cls-2" points="498.22 331.48 466.78 331.48 498.22 358.33 498.22 331.48"/>
  <polygon class="cls-12" points="498.22 0 71.37 0 267.89 165.74 498.22 165.74 498.22 0"/>
  <polygon class="cls-11" points="498.22 165.74 266.7 165.74 467.96 331.48 498.22 331.48 498.22 165.74"/>
  <polygon class="cls-6" points="498.22 0 71.37 0 498.22 129.07 498.22 0"/>
  <path class="cls-4" d="M498.22,427L.33,426.19c0,40.25,31.96,71.03,71.03,71.03h426.86v-70.23Z"/>
  <path class="cls-10" d="M177.91,0h-106.55C32.3,0,.33,28.41.33,68.66v361.08c0,39.07,31.96,67.48,71.03,67.48h106.55V0Z"/>
  <rect class="cls-10" width="69.77" height="497.23"/>
  <polygon class="cls-5" points="177.91 165.74 .33 165.74 .33 164.56 .33 332.67 .33 331.48 177.91 331.48 177.91 165.74"/>
  <path class="cls-9" d="M.33,331.48v98.26c0,39.07,31.96,67.48,71.03,67.48h106.55v-165.74H.33Z"/>
  <path class="cls-3" d="M.33,426.19c0,47.35,31.96,71.03,71.03,71.03h106.55v-71.03H.33Z"/>
  <path class="cls-3" d="M0,426.19v70.97c1.12.04,2.24.06,3.37.06h106.55v-71.03H0Z"/>
  <polygon class="cls-9" points="177.91 0 71.37 0 177.91 89.97 177.91 0"/>
  <polygon class="cls-3" points="177.91 0 71.37 0 177.91 29.6 177.91 0"/>
</svg>