<svg width="100" height="100" viewBox="0 0 100 100" fill="none" xmlns="http://www.w3.org/2000/svg">
<g clip-path="url(#clip0_1290_115)">
<path d="M37.5 0L31.25 1.5625V6.25H37.5V0ZM37.5 6.25V12.5H31.25V6.25H31.2125C23.3438 6.3375 17.5875 6.0625 12.8875 8.65C10.5375 9.95 8.66875 12.15 7.6375 14.8937C6.6125 17.6312 6.25 20.8937 6.25 25V75C6.25 79.1063 6.6125 82.3625 7.6375 85.1062C8.66875 87.85 10.5375 90.0312 12.8875 91.3312C17.5938 93.925 23.35 93.6563 31.2125 93.75H68.7875C76.65 93.6563 82.4 93.925 87.1063 91.3312C89.5412 89.9504 91.3997 87.7415 92.3437 85.1062C93.375 82.3625 93.75 78.9187 93.75 75V25C93.75 20.8875 93.375 17.6312 92.3437 14.8937C91.3974 12.2566 89.5399 10.0445 87.1063 8.65625C82.4 6.05625 76.65 6.34375 68.7875 6.25H68.75V12.5H62.5V6.25H37.5ZM62.5 6.25H68.75V0L62.5 1.5625V6.25ZM31.2875 31.25H68.75C76.625 31.3375 81.7938 31.625 84.0813 32.8813C85.225 33.5188 85.8875 34.2125 86.4937 35.8375C87.1062 37.4625 87.4937 43.75 87.4937 43.75V75C87.4937 78.7 87.1062 81.2813 86.4937 82.9063C85.8875 84.5313 85.225 85.2312 84.0813 85.8625C81.7938 87.125 76.6187 87.4063 68.75 87.5H31.25C23.375 87.4063 18.2063 87.125 15.9125 85.8625C14.7688 85.2312 14.1063 84.5313 13.5 82.9063C12.8875 81.2813 12.5 78.7 12.5 75V43.75C12.5 40.0438 12.8875 37.4625 13.5 35.8375C14.1063 34.2125 14.7688 33.5188 15.9125 32.8813C18.2063 31.6188 23.3875 31.3375 31.2875 31.25Z" fill="#83DBD8"/>
</g>
<defs>
<clipPath id="clip0_1290_115">
<rect width="100" height="100" fill="white"/>
</clipPath>
</defs>
</svg>
