<svg width="12" height="14" viewBox="0 0 12 14" fill="none" xmlns="http://www.w3.org/2000/svg">
<path d="M0.666626 2.33333H4.66663M4.66663 2.33333C4.66663 3.06971 5.26356 3.66667 5.99996 3.66667C6.73636 3.66667 7.33329 3.06971 7.33329 2.33333M4.66663 2.33333C4.66663 1.59695 5.26356 1 5.99996 1C6.73636 1 7.33329 1.59695 7.33329 2.33333M7.33329 2.33333H11.3333M0.666626 7H8.66663M8.66663 7C8.66663 7.7364 9.26356 8.33333 9.99996 8.33333C10.7364 8.33333 11.3333 7.7364 11.3333 7C11.3333 6.2636 10.7364 5.66667 9.99996 5.66667C9.26356 5.66667 8.66663 6.2636 8.66663 7ZM3.33329 11.6667H11.3333M3.33329 11.6667C3.33329 10.9303 2.73634 10.3333 1.99996 10.3333C1.26358 10.3333 0.666626 10.9303 0.666626 11.6667C0.666626 12.4031 1.26358 13 1.99996 13C2.73634 13 3.33329 12.4031 3.33329 11.6667Z" stroke="black" stroke-linecap="round"/>
</svg>
